{
	"asset":{
		"generator":"Khronos glTF Blender I/O v4.5.48",
		"version":"2.0"
	},
	"scene":0,
	"scenes":[
		{
			"name":"Scene",
			"nodes":[
				0
			]
		}
	],
	"nodes":[
		{
			"mesh":0,
			"name":"Icosphere",
			"scale":[
				36.206729888916016,
				36.206729888916016,
				36.206729888916016
			]
		}
	],
	"materials":[
		{
			"doubleSided":true,
			"name":"Material.001",
			"pbrMetallicRoughness":{
				"baseColorTexture":{
					"index":0
				},
				"metallicFactor":0
			}
		}
	],
	"meshes":[
		{
			"name":"Icosphere.001",
			"primitives":[
				{
					"attributes":{
						"POSITION":0,
						"NORMAL":1,
						"TEXCOORD_0":2
					},
					"indices":3,
					"material":0
				}
			]
		}
	],
	"textures":[
		{
			"sampler":0,
			"source":0
		}
	],
	"images":[
		{
			"mimeType":"image/png",
			"name":"cave2",
			"uri":"cave2_texture.png"
		}
	],
	"accessors":[
		{
			"bufferView":0,
			"componentType":5126,
			"count":30690,
			"max":[
				3.0596625804901123,
				2.9338746070861816,
				5.9505109786987305
			],
			"min":[
				-3.190436601638794,
				-3.537095069885254,
				-4.493416786193848
			],
			"type":"VEC3"
		},
		{
			"bufferView":1,
			"componentType":5126,
			"count":30690,
			"type":"VEC3"
		},
		{
			"bufferView":2,
			"componentType":5126,
			"count":30690,
			"type":"VEC2"
		},
		{
			"bufferView":3,
			"componentType":5123,
			"count":30744,
			"type":"SCALAR"
		}
	],
	"bufferViews":[
		{
			"buffer":0,
			"byteLength":368280,
			"byteOffset":0,
			"target":34962
		},
		{
			"buffer":0,
			"byteLength":368280,
			"byteOffset":368280,
			"target":34962
		},
		{
			"buffer":0,
			"byteLength":245520,
			"byteOffset":736560,
			"target":34962
		},
		{
			"buffer":0,
			"byteLength":61488,
			"byteOffset":982080,
			"target":34963
		}
	],
	"samplers":[
		{
			"magFilter":9729,
			"minFilter":9987
		}
	],
	"buffers":[
		{
			"byteLength":1043568,
			"uri":"cave2.bin"
		}
	]
}
