{
  "accessors": [
    {
      "bufferView": 2,
      "componentType": 5126,
      "count": 562,
      "max": [
        4.999999523162842,
        10.950488090515137,
        4.768198013305664
      ],
      "min": [
        -4.999999523162842,
        0.0,
        -4.768198013305664
      ],
      "type": "VEC3"
    },
    {
      "bufferView": 2,
      "byteOffset": 6744,
      "componentType": 5126,
      "count": 562,
      "type": "VEC3"
    },
    {
      "bufferView": 3,
      "componentType": 5126,
      "count": 562,
      "type": "VEC4"
    },
    {
      "bufferView": 1,
      "componentType": 5126,
      "count": 562,
      "type": "VEC2"
    },
    {
      "bufferView": 0,
      "componentType": 5125,
      "count": 2832,
      "type": "SCALAR"
    },
    {
      "bufferView": 2,
      "byteOffset": 13488,
      "componentType": 5126,
      "count": 442,
      "max": [
        3.788804054260254,
        8.885854721069336,
        3.9054882526397705
      ],
      "min": [
        -3.788806915283203,
        0.0,
        -3.9054882526397705
      ],
      "type": "VEC3"
    },
    {
      "bufferView": 2,
      "byteOffset": 18792,
      "componentType": 5126,
      "count": 442,
      "type": "VEC3"
    },
    {
      "bufferView": 3,
      "byteOffset": 8992,
      "componentType": 5126,
      "count": 442,
      "type": "VEC4"
    },
    {
      "bufferView": 1,
      "byteOffset": 4496,
      "componentType": 5126,
      "count": 442,
      "type": "VEC2"
    },
    {
      "bufferView": 0,
      "byteOffset": 11328,
      "componentType": 5125,
      "count": 2118,
      "type": "SCALAR"
    },
    {
      "bufferView": 2,
      "byteOffset": 24096,
      "componentType": 5126,
      "count": 527,
      "max": [
        3.9554543495178223,
        5.329673767089844,
        3.270871162414551
      ],
      "min": [
        -3.9554567337036133,
        0.0,
        -3.270871162414551
      ],
      "type": "VEC3"
    },
    {
      "bufferView": 2,
      "byteOffset": 30420,
      "componentType": 5126,
      "count": 527,
      "type": "VEC3"
    },
    {
      "bufferView": 3,
      "byteOffset": 16064,
      "componentType": 5126,
      "count": 527,
      "type": "VEC4"
    },
    {
      "bufferView": 1,
      "byteOffset": 8032,
      "componentType": 5126,
      "count": 527,
      "type": "VEC2"
    },
    {
      "bufferView": 0,
      "byteOffset": 19800,
      "componentType": 5125,
      "count": 2394,
      "type": "SCALAR"
    },
    {
      "bufferView": 2,
      "byteOffset": 36744,
      "componentType": 5126,
      "count": 213,
      "max": [
        1.5620845556259155,
        5.008097171783447,
        1.712346076965332
      ],
      "min": [
        -1.5620845556259155,
        0.0,
        -1.712346076965332
      ],
      "type": "VEC3"
    },
    {
      "bufferView": 2,
      "byteOffset": 39300,
      "componentType": 5126,
      "count": 213,
      "type": "VEC3"
    },
    {
      "bufferView": 3,
      "byteOffset": 24496,
      "componentType": 5126,
      "count": 213,
      "type": "VEC4"
    },
    {
      "bufferView": 1,
      "byteOffset": 12248,
      "componentType": 5126,
      "count": 213,
      "type": "VEC2"
    },
    {
      "bufferView": 0,
      "byteOffset": 29376,
      "componentType": 5125,
      "count": 942,
      "type": "SCALAR"
    },
    {
      "bufferView": 2,
      "byteOffset": 41856,
      "componentType": 5126,
      "count": 190,
      "max": [
        1.4292234182357788,
        4.64383602142334,
        1.3276838064193726
      ],
      "min": [
        -1.4292259216308594,
        0.0,
        -1.3276838064193726
      ],
      "type": "VEC3"
    },
    {
      "bufferView": 2,
      "byteOffset": 44136,
      "componentType": 5126,
      "count": 190,
      "type": "VEC3"
    },
    {
      "bufferView": 3,
      "byteOffset": 27904,
      "componentType": 5126,
      "count": 190,
      "type": "VEC4"
    },
    {
      "bufferView": 1,
      "byteOffset": 13952,
      "componentType": 5126,
      "count": 190,
      "type": "VEC2"
    },
    {
      "bufferView": 0,
      "byteOffset": 33144,
      "componentType": 5125,
      "count": 816,
      "type": "SCALAR"
    }
  ],
  "asset": {
    "generator": "fab-model-conversion",
    "version": "2.0"
  },
  "bufferViews": [
    {
      "buffer": 0,
      "byteLength": 36408,
      "target": 34963
    },
    {
      "buffer": 0,
      "byteLength": 15472,
      "byteOffset": 36408,
      "byteStride": 8,
      "target": 34962
    },
    {
      "buffer": 0,
      "byteLength": 46416,
      "byteOffset": 51880,
      "byteStride": 12,
      "target": 34962
    },
    {
      "buffer": 0,
      "byteLength": 30944,
      "byteOffset": 98296,
      "byteStride": 16,
      "target": 34962
    }
  ],
  "buffers": [
    {
      "byteLength": 129240,
      "uri": "Bolete_Mushrooms_pdvcB_Mid.bin"
    }
  ],
  "images": [
    {
      "uri": "textures/Bolete_Mushrooms_pdvcB_Mid_2K_albedo.jpeg"
    },
    {
      "uri": "textures/Bolete_Mushrooms_pdvcB_Mid_2K_orm.png"
    },
    {
      "uri": "textures/Bolete_Mushrooms_pdvcB_Mid_2K_normal.jpeg"
    }
  ],
  "materials": [
    {
      "doubleSided": true,
      "name": "Bolete_Mushrooms_pdvcB_Mid",
      "normalTexture": {
        "index": 2
      },
      "occlusionTexture": {
        "index": 1
      },
      "pbrMetallicRoughness": {
        "baseColorTexture": {
          "index": 0
        },
        "metallicFactor": 0.0,
        "metallicRoughnessTexture": {
          "index": 1
        }
      }
    }
  ],
  "meshes": [
    {
      "name": "pdvcB_LOD0_TIER2_000_MatID_1_0",
      "primitives": [
        {
          "attributes": {
            "NORMAL": 1,
            "POSITION": 0,
            "TANGENT": 2,
            "TEXCOORD_0": 3
          },
          "indices": 4,
          "material": 0,
          "mode": 4
        }
      ]
    },
    {
      "name": "pdvcB_LOD0_TIER2_001_MatID_1_0",
      "primitives": [
        {
          "attributes": {
            "NORMAL": 6,
            "POSITION": 5,
            "TANGENT": 7,
            "TEXCOORD_0": 8
          },
          "indices": 9,
          "material": 0,
          "mode": 4
        }
      ]
    },
    {
      "name": "pdvcB_LOD0_TIER2_002_MatID_1_0",
      "primitives": [
        {
          "attributes": {
            "NORMAL": 11,
            "POSITION": 10,
            "TANGENT": 12,
            "TEXCOORD_0": 13
          },
          "indices": 14,
          "material": 0,
          "mode": 4
        }
      ]
    },
    {
      "name": "pdvcB_LOD0_TIER2_003_MatID_1_0",
      "primitives": [
        {
          "attributes": {
            "NORMAL": 16,
            "POSITION": 15,
            "TANGENT": 17,
            "TEXCOORD_0": 18
          },
          "indices": 19,
          "material": 0,
          "mode": 4
        }
      ]
    },
    {
      "name": "pdvcB_LOD0_TIER2_004_MatID_1_0",
      "primitives": [
        {
          "attributes": {
            "NORMAL": 21,
            "POSITION": 20,
            "TANGENT": 22,
            "TEXCOORD_0": 23
          },
          "indices": 24,
          "material": 0,
          "mode": 4
        }
      ]
    }
  ],
  "nodes": [
    {
      "children": [
        1
      ],
      "matrix": [
        1.0,
        0.0,
        0.0,
        0.0,
        0.0,
        2.220446049250313e-16,
        -1.0,
        0.0,
        0.0,
        1.0,
        2.220446049250313e-16,
        0.0,
        0.0,
        0.0,
        0.0,
        1.0
      ],
      "name": "Sketchfab_model"
    },
    {
      "children": [
        2
      ],
      "matrix": [
        0.009999999776482582,
        0.0,
        0.0,
        0.0,
        0.0,
        0.0,
        0.009999999776482582,
        0.0,
        0.0,
        -0.009999999776482582,
        0.0,
        0.0,
        0.0,
        0.0,
        0.0,
        1.0
      ],
      "name": "Bolete_Mushrooms_pdvcB_Mid.fbx"
    },
    {
      "children": [
        3,
        5,
        7,
        9,
        11
      ],
      "name": "RootNode"
    },
    {
      "children": [
        4
      ],
      "name": "pdvcB_LOD0_TIER2_000"
    },
    {
      "mesh": 0,
      "name": "pdvcB_LOD0_TIER2_000_MatID_1_0"
    },
    {
      "children": [
        6
      ],
      "name": "pdvcB_LOD0_TIER2_001"
    },
    {
      "mesh": 1,
      "name": "pdvcB_LOD0_TIER2_001_MatID_1_0"
    },
    {
      "children": [
        8
      ],
      "name": "pdvcB_LOD0_TIER2_002"
    },
    {
      "mesh": 2,
      "name": "pdvcB_LOD0_TIER2_002_MatID_1_0"
    },
    {
      "children": [
        10
      ],
      "name": "pdvcB_LOD0_TIER2_003"
    },
    {
      "mesh": 3,
      "name": "pdvcB_LOD0_TIER2_003_MatID_1_0"
    },
    {
      "children": [
        12
      ],
      "name": "pdvcB_LOD0_TIER2_004"
    },
    {
      "mesh": 4,
      "name": "pdvcB_LOD0_TIER2_004_MatID_1_0"
    }
  ],
  "samplers": [
    {
      "magFilter": 9729,
      "minFilter": 9987,
      "wrapS": 10497,
      "wrapT": 10497
    }
  ],
  "scene": 0,
  "scenes": [
    {
      "name": "Sketchfab_Scene",
      "nodes": [
        0
      ]
    }
  ],
  "textures": [
    {
      "sampler": 0,
      "source": 0
    },
    {
      "sampler": 0,
      "source": 1
    },
    {
      "sampler": 0,
      "source": 2
    }
  ]
}
