{
	"asset":{
		"generator":"Khronos glTF Blender I/O v4.5.48",
		"version":"2.0"
	},
	"scene":0,
	"scenes":[
		{
			"name":"Scene",
			"nodes":[
				0
			]
		}
	],
	"nodes":[
		{
			"mesh":0,
			"name":"Icosphere",
			"scale":[
				26.236364364624023,
				26.236364364624023,
				26.236364364624023
			]
		}
	],
	"materials":[
		{
			"doubleSided":true,
			"name":"Material.001",
			"pbrMetallicRoughness":{
				"baseColorTexture":{
					"index":0
				},
				"metallicFactor":0
			}
		}
	],
	"meshes":[
		{
			"name":"Icosphere.001",
			"primitives":[
				{
					"attributes":{
						"POSITION":0,
						"NORMAL":1,
						"TEXCOORD_0":2
					},
					"indices":3,
					"material":0
				}
			]
		}
	],
	"textures":[
		{
			"sampler":0,
			"source":0
		}
	],
	"images":[
		{
			"mimeType":"image/png",
			"name":"big_stalagmite_texture",
			"uri":"big_stalagmite_texture.png"
		}
	],
	"accessors":[
		{
			"bufferView":0,
			"componentType":5126,
			"count":1485,
			"max":[
				1.477380633354187,
				0.05983540415763855,
				1.5528477430343628
			],
			"min":[
				-1.1620357036590576,
				-4.756024360656738,
				-1.2956650257110596
			],
			"type":"VEC3"
		},
		{
			"bufferView":1,
			"componentType":5126,
			"count":1485,
			"type":"VEC3"
		},
		{
			"bufferView":2,
			"componentType":5126,
			"count":1485,
			"type":"VEC2"
		},
		{
			"bufferView":3,
			"componentType":5123,
			"count":4704,
			"type":"SCALAR"
		}
	],
	"bufferViews":[
		{
			"buffer":0,
			"byteLength":17820,
			"byteOffset":0,
			"target":34962
		},
		{
			"buffer":0,
			"byteLength":17820,
			"byteOffset":17820,
			"target":34962
		},
		{
			"buffer":0,
			"byteLength":11880,
			"byteOffset":35640,
			"target":34962
		},
		{
			"buffer":0,
			"byteLength":9408,
			"byteOffset":47520,
			"target":34963
		}
	],
	"samplers":[
		{
			"magFilter":9729,
			"minFilter":9987
		}
	],
	"buffers":[
		{
			"byteLength":56928,
			"uri":"big_stalagmite.bin"
		}
	]
}
