{
	"asset":{
		"generator":"Khronos glTF Blender I/O v4.5.48",
		"version":"2.0"
	},
	"scene":0,
	"scenes":[
		{
			"name":"Scene",
			"nodes":[
				0
			]
		}
	],
	"nodes":[
		{
			"mesh":0,
			"name":"Icosphere",
			"scale":[
				10.85400104522705,
				10.85400104522705,
				10.85400104522705
			]
		}
	],
	"materials":[
		{
			"doubleSided":true,
			"name":"Material.001",
			"pbrMetallicRoughness":{
				"baseColorTexture":{
					"index":0
				},
				"metallicFactor":0
			}
		}
	],
	"meshes":[
		{
			"name":"Icosphere",
			"primitives":[
				{
					"attributes":{
						"POSITION":0,
						"NORMAL":1,
						"TEXCOORD_0":2
					},
					"indices":3,
					"material":0
				}
			]
		}
	],
	"textures":[
		{
			"sampler":0,
			"source":0
		}
	],
	"images":[
		{
			"mimeType":"image/png",
			"name":"Untitled",
			"uri":"cave1_texture.png"
		}
	],
	"accessors":[
		{
			"bufferView":0,
			"componentType":5126,
			"count":19346,
			"max":[
				2.610104560852051,
				2.974893569946289,
				2.4756689071655273
			],
			"min":[
				-2.0550694465637207,
				-1.3095518350601196,
				-4.335669994354248
			],
			"type":"VEC3"
		},
		{
			"bufferView":1,
			"componentType":5126,
			"count":19346,
			"type":"VEC3"
		},
		{
			"bufferView":2,
			"componentType":5126,
			"count":19346,
			"type":"VEC2"
		},
		{
			"bufferView":3,
			"componentType":5123,
			"count":62940,
			"type":"SCALAR"
		}
	],
	"bufferViews":[
		{
			"buffer":0,
			"byteLength":232152,
			"byteOffset":0,
			"target":34962
		},
		{
			"buffer":0,
			"byteLength":232152,
			"byteOffset":232152,
			"target":34962
		},
		{
			"buffer":0,
			"byteLength":154768,
			"byteOffset":464304,
			"target":34962
		},
		{
			"buffer":0,
			"byteLength":125880,
			"byteOffset":619072,
			"target":34963
		}
	],
	"samplers":[
		{
			"magFilter":9729,
			"minFilter":9987
		}
	],
	"buffers":[
		{
			"byteLength":744952,
			"uri":"our_cave.bin"
		}
	]
}
