{
	"asset":{
		"generator":"Khronos glTF Blender I/O v4.5.48",
		"version":"2.0"
	},
	"scene":0,
	"scenes":[
		{
			"name":"Scene",
			"nodes":[
				0
			]
		}
	],
	"nodes":[
		{
			"mesh":0,
			"name":"Cube",
			"scale":[
				1,
				0.20588189363479614,
				1
			]
		}
	],
	"materials":[
		{
			"doubleSided":true,
			"name":"Material",
			"pbrMetallicRoughness":{
				"baseColorTexture":{
					"index":0
				},
				"metallicFactor":0,
				"roughnessFactor":0.8018181920051575
			}
		}
	],
	"meshes":[
		{
			"name":"Cube",
			"primitives":[
				{
					"attributes":{
						"POSITION":0,
						"NORMAL":1,
						"TEXCOORD_0":2
					},
					"indices":3,
					"material":0
				}
			]
		}
	],
	"textures":[
		{
			"sampler":0,
			"source":0
		}
	],
	"images":[
		{
			"mimeType":"image/png",
			"name":"pallet_texture",
			"uri":"pallet_texture.png"
		}
	],
	"accessors":[
		{
			"bufferView":0,
			"componentType":5126,
			"count":766,
			"max":[
				15.875406265258789,
				1.838850498199463,
				6.227911472320557
			],
			"min":[
				-15.174582481384277,
				-2.722106456756592,
				-5.997955322265625
			],
			"type":"VEC3"
		},
		{
			"bufferView":1,
			"componentType":5126,
			"count":766,
			"type":"VEC3"
		},
		{
			"bufferView":2,
			"componentType":5126,
			"count":766,
			"type":"VEC2"
		},
		{
			"bufferView":3,
			"componentType":5123,
			"count":1992,
			"type":"SCALAR"
		}
	],
	"bufferViews":[
		{
			"buffer":0,
			"byteLength":9192,
			"byteOffset":0,
			"target":34962
		},
		{
			"buffer":0,
			"byteLength":9192,
			"byteOffset":9192,
			"target":34962
		},
		{
			"buffer":0,
			"byteLength":6128,
			"byteOffset":18384,
			"target":34962
		},
		{
			"buffer":0,
			"byteLength":3984,
			"byteOffset":24512,
			"target":34963
		}
	],
	"samplers":[
		{
			"magFilter":9729,
			"minFilter":9987
		}
	],
	"buffers":[
		{
			"byteLength":28496,
			"uri":"pallet.bin"
		}
	]
}
