{
	"asset":{
		"generator":"Khronos glTF Blender I/O v4.5.48",
		"version":"2.0"
	},
	"scene":0,
	"scenes":[
		{
			"name":"Scene",
			"nodes":[
				0
			]
		}
	],
	"nodes":[
		{
			"mesh":0,
			"name":"Icosphere"
		}
	],
	"materials":[
		{
			"doubleSided":true,
			"name":"Material.001",
			"pbrMetallicRoughness":{
				"baseColorTexture":{
					"index":0
				},
				"metallicFactor":0
			}
		}
	],
	"meshes":[
		{
			"name":"Icosphere",
			"primitives":[
				{
					"attributes":{
						"POSITION":0,
						"NORMAL":1,
						"TEXCOORD_0":2
					},
					"indices":3,
					"material":0
				}
			]
		}
	],
	"textures":[
		{
			"sampler":0,
			"source":0
		}
	],
	"images":[
		{
			"mimeType":"image/png",
			"name":"stalgmite_texture",
			"uri":"stalgmite_texture.png"
		}
	],
	"accessors":[
		{
			"bufferView":0,
			"componentType":5126,
			"count":1357,
			"max":[
				0.6573565006256104,
				4.853804111480713,
				1.7326518297195435
			],
			"min":[
				-0.8413298726081848,
				0.2359410971403122,
				0.1913861781358719
			],
			"type":"VEC3"
		},
		{
			"bufferView":1,
			"componentType":5126,
			"count":1357,
			"type":"VEC3"
		},
		{
			"bufferView":2,
			"componentType":5126,
			"count":1357,
			"type":"VEC2"
		},
		{
			"bufferView":3,
			"componentType":5123,
			"count":3846,
			"type":"SCALAR"
		}
	],
	"bufferViews":[
		{
			"buffer":0,
			"byteLength":16284,
			"byteOffset":0,
			"target":34962
		},
		{
			"buffer":0,
			"byteLength":16284,
			"byteOffset":16284,
			"target":34962
		},
		{
			"buffer":0,
			"byteLength":10856,
			"byteOffset":32568,
			"target":34962
		},
		{
			"buffer":0,
			"byteLength":7692,
			"byteOffset":43424,
			"target":34963
		}
	],
	"samplers":[
		{
			"magFilter":9729,
			"minFilter":9987
		}
	],
	"buffers":[
		{
			"byteLength":51116,
			"uri":"stalagmite.bin"
		}
	]
}
