{
	"asset":{
		"generator":"Khronos glTF Blender I/O v4.5.48",
		"version":"2.0"
	},
	"scene":0,
	"scenes":[
		{
			"name":"Scene",
			"nodes":[
				0
			]
		}
	],
	"nodes":[
		{
			"mesh":0,
			"name":"Icosphere",
			"scale":[
				74.91610717773438,
				74.91610717773438,
				74.91610717773438
			]
		}
	],
	"materials":[
		{
			"doubleSided":true,
			"name":"Material.001",
			"pbrMetallicRoughness":{
				"baseColorTexture":{
					"index":0
				},
				"metallicFactor":0
			}
		}
	],
	"meshes":[
		{
			"name":"Icosphere",
			"primitives":[
				{
					"attributes":{
						"POSITION":0,
						"NORMAL":1,
						"TEXCOORD_0":2
					},
					"indices":3,
					"material":0
				}
			]
		}
	],
	"textures":[
		{
			"sampler":0,
			"source":0
		}
	],
	"images":[
		{
			"mimeType":"image/png",
			"name":"cave3_texture",
			"uri":"cave3_texture.png"
		}
	],
	"accessors":[
		{
			"bufferView":0,
			"componentType":5126,
			"count":22602,
			"max":[
				2.0353474617004395,
				2.4480955600738525,
				3.941044330596924
			],
			"min":[
				-1.2879960536956787,
				-0.874984622001648,
				-3.3634750843048096
			],
			"type":"VEC3"
		},
		{
			"bufferView":1,
			"componentType":5126,
			"count":22602,
			"type":"VEC3"
		},
		{
			"bufferView":2,
			"componentType":5126,
			"count":22602,
			"type":"VEC2"
		},
		{
			"bufferView":3,
			"componentType":5123,
			"count":57594,
			"type":"SCALAR"
		}
	],
	"bufferViews":[
		{
			"buffer":0,
			"byteLength":271224,
			"byteOffset":0,
			"target":34962
		},
		{
			"buffer":0,
			"byteLength":271224,
			"byteOffset":271224,
			"target":34962
		},
		{
			"buffer":0,
			"byteLength":180816,
			"byteOffset":542448,
			"target":34962
		},
		{
			"buffer":0,
			"byteLength":115188,
			"byteOffset":723264,
			"target":34963
		}
	],
	"samplers":[
		{
			"magFilter":9729,
			"minFilter":9987
		}
	],
	"buffers":[
		{
			"byteLength":838452,
			"uri":"cave3.bin"
		}
	]
}
