{
    "asset": {
        "generator": "Khronos glTF Blender I/O v3.6.27",
        "version": "2.0"
    },
    "scene": 0,
    "scenes": [
        {
            "name": "Scene",
            "nodes": [
                0,
                1,
                2,
                3
            ]
        }
    ],
    "nodes": [
        {
            "mesh": 0,
            "name": "qdzrT_LOD0_TIER2_000",
            "rotation": [
                0.7071068286895752,
                0,
                0,
                0.7071068286895752
            ],
            "scale": [
                0.009999999776482582,
                0.009999999776482582,
                0.009999999776482582
            ]
        },
        {
            "mesh": 1,
            "name": "qdzrT_LOD0_TIER2_001",
            "rotation": [
                0.7071068286895752,
                0,
                0,
                0.7071068286895752
            ],
            "scale": [
                0.009999999776482582,
                0.009999999776482582,
                0.009999999776482582
            ]
        },
        {
            "mesh": 2,
            "name": "qdzrT_LOD0_TIER2_002",
            "rotation": [
                0.7071068286895752,
                0,
                0,
                0.7071068286895752
            ],
            "scale": [
                0.009999999776482582,
                0.009999999776482582,
                0.009999999776482582
            ]
        },
        {
            "mesh": 3,
            "name": "qdzrT_LOD0_TIER2_003",
            "rotation": [
                0.7071068286895752,
                0,
                0,
                0.7071068286895752
            ],
            "scale": [
                0.009999999776482582,
                0.009999999776482582,
                0.009999999776482582
            ]
        }
    ],
    "materials": [
        {
            "doubleSided": true,
            "name": "MI_qdzrT",
            "normalTexture": {
                "index": 0
            },
            "occlusionTexture": {
                "index": 1
            },
            "pbrMetallicRoughness": {
                "baseColorTexture": {
                    "index": 2
                },
                "metallicRoughnessTexture": {
                    "index": 1
                }
            }
        }
    ],
    "meshes": [
        {
            "name": "S_qdzrT_tier_2",
            "primitives": [
                {
                    "attributes": {
                        "POSITION": 0,
                        "NORMAL": 1,
                        "TEXCOORD_0": 2,
                        "TANGENT": 3
                    },
                    "indices": 4,
                    "material": 0
                }
            ]
        },
        {
            "name": "S_qdzrT_tier_2.001",
            "primitives": [
                {
                    "attributes": {
                        "POSITION": 5,
                        "NORMAL": 6,
                        "TEXCOORD_0": 7,
                        "TANGENT": 8
                    },
                    "indices": 9,
                    "material": 0
                }
            ]
        },
        {
            "name": "S_qdzrT_tier_2.002",
            "primitives": [
                {
                    "attributes": {
                        "POSITION": 10,
                        "NORMAL": 11,
                        "TEXCOORD_0": 12,
                        "TANGENT": 13
                    },
                    "indices": 14,
                    "material": 0
                }
            ]
        },
        {
            "name": "S_qdzrT_tier_2.003",
            "primitives": [
                {
                    "attributes": {
                        "POSITION": 15,
                        "NORMAL": 16,
                        "TEXCOORD_0": 17,
                        "TANGENT": 18
                    },
                    "indices": 19,
                    "material": 0
                }
            ]
        }
    ],
    "textures": [
        {
            "sampler": 0,
            "source": 0
        },
        {
            "sampler": 0,
            "source": 1
        },
        {
            "sampler": 0,
            "source": 2
        }
    ],
    "images": [
        {
            "mimeType": "image/png",
            "name": "T_qdzrT_2K_N",
            "uri": "Textures/T_qdzrT_2K_N.png"
        },
        {
            "mimeType": "image/png",
            "name": "T_qdzrT_2K_ORM",
            "uri": "Textures/T_qdzrT_2K_ORM.png",
            "extras": {
                "compression": "mask"
            }
        },
        {
            "mimeType": "image/png",
            "name": "T_qdzrT_2K_B",
            "uri": "Textures/T_qdzrT_2K_B.png"
        }
    ],
    "accessors": [
        {
            "bufferView": 0,
            "componentType": 5126,
            "count": 500,
            "max": [
                6,
                6.058689594268799,
                0
            ],
            "min": [
                -6,
                -6.058689594268799,
                -6.384592056274414
            ],
            "type": "VEC3"
        },
        {
            "bufferView": 1,
            "componentType": 5126,
            "count": 500,
            "type": "VEC3"
        },
        {
            "bufferView": 2,
            "componentType": 5126,
            "count": 500,
            "type": "VEC2"
        },
        {
            "bufferView": 3,
            "componentType": 5126,
            "count": 500,
            "type": "VEC4"
        },
        {
            "bufferView": 4,
            "componentType": 5123,
            "count": 2394,
            "type": "SCALAR"
        },
        {
            "bufferView": 5,
            "componentType": 5126,
            "count": 501,
            "max": [
                5.771738052368164,
                5.716944217681885,
                0
            ],
            "min": [
                -5.771738052368164,
                -5.716944217681885,
                -6.698030948638916
            ],
            "type": "VEC3"
        },
        {
            "bufferView": 6,
            "componentType": 5126,
            "count": 501,
            "type": "VEC3"
        },
        {
            "bufferView": 7,
            "componentType": 5126,
            "count": 501,
            "type": "VEC2"
        },
        {
            "bufferView": 8,
            "componentType": 5126,
            "count": 501,
            "type": "VEC4"
        },
        {
            "bufferView": 9,
            "componentType": 5123,
            "count": 2364,
            "type": "SCALAR"
        },
        {
            "bufferView": 10,
            "componentType": 5126,
            "count": 475,
            "max": [
                5.05760383605957,
                5.37247371673584,
                0
            ],
            "min": [
                -5.0576066970825195,
                -5.37247371673584,
                -6.615710735321045
            ],
            "type": "VEC3"
        },
        {
            "bufferView": 11,
            "componentType": 5126,
            "count": 475,
            "type": "VEC3"
        },
        {
            "bufferView": 12,
            "componentType": 5126,
            "count": 475,
            "type": "VEC2"
        },
        {
            "bufferView": 13,
            "componentType": 5126,
            "count": 475,
            "type": "VEC4"
        },
        {
            "bufferView": 14,
            "componentType": 5123,
            "count": 2292,
            "type": "SCALAR"
        },
        {
            "bufferView": 15,
            "componentType": 5126,
            "count": 430,
            "max": [
                4.2362260818481445,
                3.934602737426758,
                0
            ],
            "min": [
                -4.2362260818481445,
                -3.934602737426758,
                -8.440771102905273
            ],
            "type": "VEC3"
        },
        {
            "bufferView": 16,
            "componentType": 5126,
            "count": 430,
            "type": "VEC3"
        },
        {
            "bufferView": 17,
            "componentType": 5126,
            "count": 430,
            "type": "VEC2"
        },
        {
            "bufferView": 18,
            "componentType": 5126,
            "count": 430,
            "type": "VEC4"
        },
        {
            "bufferView": 19,
            "componentType": 5123,
            "count": 2028,
            "type": "SCALAR"
        }
    ],
    "bufferViews": [
        {
            "buffer": 0,
            "byteLength": 6000,
            "byteOffset": 0,
            "target": 34962
        },
        {
            "buffer": 0,
            "byteLength": 6000,
            "byteOffset": 6000,
            "target": 34962
        },
        {
            "buffer": 0,
            "byteLength": 4000,
            "byteOffset": 12000,
            "target": 34962
        },
        {
            "buffer": 0,
            "byteLength": 8000,
            "byteOffset": 16000,
            "target": 34962
        },
        {
            "buffer": 0,
            "byteLength": 4788,
            "byteOffset": 24000,
            "target": 34963
        },
        {
            "buffer": 0,
            "byteLength": 6012,
            "byteOffset": 28788,
            "target": 34962
        },
        {
            "buffer": 0,
            "byteLength": 6012,
            "byteOffset": 34800,
            "target": 34962
        },
        {
            "buffer": 0,
            "byteLength": 4008,
            "byteOffset": 40812,
            "target": 34962
        },
        {
            "buffer": 0,
            "byteLength": 8016,
            "byteOffset": 44820,
            "target": 34962
        },
        {
            "buffer": 0,
            "byteLength": 4728,
            "byteOffset": 52836,
            "target": 34963
        },
        {
            "buffer": 0,
            "byteLength": 5700,
            "byteOffset": 57564,
            "target": 34962
        },
        {
            "buffer": 0,
            "byteLength": 5700,
            "byteOffset": 63264,
            "target": 34962
        },
        {
            "buffer": 0,
            "byteLength": 3800,
            "byteOffset": 68964,
            "target": 34962
        },
        {
            "buffer": 0,
            "byteLength": 7600,
            "byteOffset": 72764,
            "target": 34962
        },
        {
            "buffer": 0,
            "byteLength": 4584,
            "byteOffset": 80364,
            "target": 34963
        },
        {
            "buffer": 0,
            "byteLength": 5160,
            "byteOffset": 84948,
            "target": 34962
        },
        {
            "buffer": 0,
            "byteLength": 5160,
            "byteOffset": 90108,
            "target": 34962
        },
        {
            "buffer": 0,
            "byteLength": 3440,
            "byteOffset": 95268,
            "target": 34962
        },
        {
            "buffer": 0,
            "byteLength": 6880,
            "byteOffset": 98708,
            "target": 34962
        },
        {
            "buffer": 0,
            "byteLength": 4056,
            "byteOffset": 105588,
            "target": 34963
        }
    ],
    "samplers": [
        {
            "magFilter": 9729,
            "minFilter": 9987
        }
    ],
    "buffers": [
        {
            "byteLength": 109644,
            "uri": "qdzrT_tier_2.bin"
        }
    ]
}