{
	"asset":{
		"generator":"Khronos glTF Blender I/O v4.5.48",
		"version":"2.0"
	},
	"scene":0,
	"scenes":[
		{
			"name":"Scene",
			"nodes":[
				0
			]
		}
	],
	"nodes":[
		{
			"mesh":0,
			"name":"Cylinder",
			"scale":[
				0.49126529693603516,
				0.49126529693603516,
				0.49126529693603516
			],
			"translation":[
				0,
				20.988906860351562,
				0
			]
		}
	],
	"materials":[
		{
			"doubleSided":true,
			"name":"Material.001",
			"pbrMetallicRoughness":{
				"baseColorTexture":{
					"index":0
				},
				"metallicFactor":0,
				"roughnessFactor":0.5
			}
		}
	],
	"meshes":[
		{
			"name":"Cylinder",
			"primitives":[
				{
					"attributes":{
						"POSITION":0,
						"NORMAL":1,
						"TEXCOORD_0":2
					},
					"indices":3,
					"material":0
				}
			]
		}
	],
	"textures":[
		{
			"sampler":0,
			"source":0
		}
	],
	"images":[
		{
			"mimeType":"image/png",
			"name":"rope_texture",
			"uri":"rope_texture.png"
		}
	],
	"accessors":[
		{
			"bufferView":0,
			"componentType":5126,
			"count":3420,
			"max":[
				14.738869667053223,
				2.9778554439544678,
				8.42087173461914
			],
			"min":[
				-7.949965953826904,
				-126.31858825683594,
				-11.209636688232422
			],
			"type":"VEC3"
		},
		{
			"bufferView":1,
			"componentType":5126,
			"count":3420,
			"type":"VEC3"
		},
		{
			"bufferView":2,
			"componentType":5126,
			"count":3420,
			"type":"VEC2"
		},
		{
			"bufferView":3,
			"componentType":5123,
			"count":6624,
			"type":"SCALAR"
		}
	],
	"bufferViews":[
		{
			"buffer":0,
			"byteLength":41040,
			"byteOffset":0,
			"target":34962
		},
		{
			"buffer":0,
			"byteLength":41040,
			"byteOffset":41040,
			"target":34962
		},
		{
			"buffer":0,
			"byteLength":27360,
			"byteOffset":82080,
			"target":34962
		},
		{
			"buffer":0,
			"byteLength":13248,
			"byteOffset":109440,
			"target":34963
		}
	],
	"samplers":[
		{
			"magFilter":9729,
			"minFilter":9987
		}
	],
	"buffers":[
		{
			"byteLength":122688,
			"uri":"rope.bin"
		}
	]
}
